<svg width="24" height="24" viewBox="0 0 24 24" fill="none" xmlns="http://www.w3.org/2000/svg">
<path d="M20.025 7.76899H15.024V6.52699H20.025V7.76899ZM11.695 12.863C12.017 13.363 12.178 13.97 12.178 14.682C12.178 15.419 11.996 16.08 11.627 16.664C11.3994 17.0425 11.1009 17.3735 10.748 17.639C10.3344 17.9513 9.85483 18.1647 9.346 18.263C8.76885 18.378 8.18149 18.434 7.593 18.43H2V6.01099H7.998C9.509 6.03599 10.58 6.47399 11.214 7.33399C11.594 7.86199 11.782 8.49399 11.782 9.23099C11.782 9.98999 11.592 10.597 11.208 11.059C10.995 11.318 10.68 11.553 10.263 11.766C10.894 11.997 11.374 12.361 11.695 12.863ZM4.865 10.908H7.492C8.032 10.908 8.469 10.805 8.805 10.6C9.141 10.395 9.309 10.03 9.309 9.50799C9.309 8.92999 9.087 8.54699 8.642 8.36199C8.259 8.23399 7.77 8.16799 7.176 8.16799H4.864L4.865 10.908ZM9.562 14.505C9.562 13.86 9.298 13.414 8.772 13.175C8.477 13.038 8.062 12.969 7.53 12.964H4.864V16.274H7.49C8.029 16.274 8.446 16.203 8.747 16.056C9.29 15.785 9.563 15.27 9.563 14.505H9.562ZM21.88 12.485C21.94 12.891 21.968 13.48 21.957 14.251H15.48C15.516 15.145 15.824 15.77 16.41 16.128C16.763 16.352 17.19 16.462 17.692 16.462C18.22 16.462 18.651 16.328 18.982 16.053C19.163 15.908 19.322 15.703 19.46 15.443H21.834C21.772 15.971 21.486 16.507 20.973 17.051C20.177 17.916 19.061 18.35 17.627 18.35C16.443 18.35 15.399 17.984 14.493 17.255C13.59 16.523 13.137 15.337 13.137 13.691C13.137 12.148 13.544 10.967 14.361 10.145C15.181 9.32099 16.239 8.91099 17.543 8.91099C18.317 8.91099 19.013 9.04899 19.635 9.32699C20.255 9.60499 20.767 10.043 21.171 10.644C21.536 11.174 21.771 11.786 21.881 12.484L21.88 12.485ZM19.543 12.716C19.5 12.098 19.293 11.63 18.922 11.31C18.553 10.99 18.092 10.829 17.543 10.829C16.945 10.829 16.483 11.001 16.156 11.339C15.826 11.676 15.62 12.135 15.536 12.716H19.543Z" fill="#334155"/>
</svg>
