<svg width="20" height="21" viewBox="0 0 20 21" fill="none" xmlns="http://www.w3.org/2000/svg">
<g clip-path="url(#clip0_204_319)">
<path d="M10 0.5C4.48 0.5 0 4.98 0 10.5C0 16.02 4.48 20.5 10 20.5C15.51 20.5 20 16.02 20 10.5C20 4.98 15.51 0.5 10 0.5ZM16.605 5.11C17.8357 6.60931 18.5167 8.48437 18.535 10.424C18.254 10.37 15.434 9.795 12.592 10.153C12.527 10.012 12.472 9.86 12.408 9.708C12.231 9.29105 12.043 8.8789 11.844 8.472C14.989 7.192 16.421 5.348 16.605 5.11ZM10 1.975C12.17 1.975 14.154 2.788 15.662 4.123C15.51 4.339 14.219 6.064 11.182 7.203C9.783 4.633 8.232 2.528 7.993 2.203C8.65086 2.04921 9.32441 1.97269 10 1.975ZM6.367 2.778C7.51143 4.36432 8.56866 6.01175 9.534 7.713C5.542 8.775 2.017 8.753 1.638 8.753C1.91283 7.46013 2.48261 6.24822 3.3029 5.21179C4.12319 4.17537 5.17182 3.34245 6.367 2.778ZM1.453 10.51V10.25C1.823 10.26 5.965 10.315 10.228 9.035C10.478 9.512 10.705 10 10.922 10.488C10.813 10.521 10.694 10.553 10.586 10.586C6.182 12.006 3.839 15.889 3.644 16.215C2.23384 14.6495 1.45364 12.617 1.454 10.51H1.453ZM10 19.047C8.10143 19.0502 6.25667 18.4164 4.761 17.247C4.913 16.932 6.649 13.591 11.464 11.91C11.486 11.9 11.497 11.9 11.518 11.888C12.3303 13.9834 12.9408 16.1516 13.341 18.363C12.2858 18.817 11.1487 19.0498 10 19.047ZM14.761 17.582C14.675 17.062 14.219 14.567 13.102 11.498C15.781 11.075 18.124 11.769 18.416 11.867C18.2336 13.0201 17.8148 14.123 17.1858 15.1065C16.5568 16.09 15.7313 16.9328 14.761 17.582Z" fill="#334155"/>
</g>
<defs>
<clipPath id="clip0_204_319">
<rect width="20" height="20" fill="white" transform="translate(0 0.5)"/>
</clipPath>
</defs>
</svg>
