<svg width="24" height="25" viewBox="0 0 24 25" fill="none" xmlns="http://www.w3.org/2000/svg">
<path d="M21.959 14.219V21.598H17.681V14.713C17.681 12.983 17.062 11.803 15.514 11.803C14.332 11.803 13.628 12.599 13.319 13.368C13.206 13.643 13.177 14.026 13.177 14.411V21.598H8.897C8.897 21.598 8.955 9.938 8.897 8.729H13.177V10.553L13.149 10.595H13.177V10.553C13.745 9.678 14.76 8.427 17.033 8.427C19.848 8.427 21.959 10.267 21.959 14.219ZM4.421 2.526C2.958 2.526 2 3.486 2 4.749C2 5.984 2.93 6.973 4.365 6.973H4.393C5.886 6.973 6.813 5.984 6.813 4.749C6.787 3.486 5.886 2.526 4.421 2.526ZM2.254 21.598H6.532V8.729H2.254V21.598Z" fill="#334155"/>
</svg>
