<svg width="17" height="16" viewBox="0 0 17 16" fill="none" xmlns="http://www.w3.org/2000/svg">
<g id="icon/plane">
<path id="Vector" d="M2.23332 8.72198L4.53465 9.72931L11.1667 6.11131L7.16665 10.778L12.9 13.3886C12.998 13.4316 13.105 13.4503 13.2118 13.4432C13.3186 13.436 13.4221 13.4033 13.5136 13.3477C13.6051 13.2921 13.6818 13.2154 13.7374 13.1238C13.7929 13.0323 13.8256 12.9288 13.8327 12.822L14.4993 2.82198C14.5067 2.70623 14.4839 2.59055 14.4331 2.48631C14.3822 2.38207 14.3051 2.29287 14.2093 2.22748C14.1135 2.1621 14.0023 2.12278 13.8867 2.1134C13.7711 2.10401 13.6551 2.12489 13.55 2.17398L2.21665 7.50731C2.10105 7.56216 2.00363 7.64906 1.93598 7.75767C1.86833 7.86629 1.8333 7.99205 1.83505 8.11999C1.83681 8.24794 1.87528 8.37269 1.94588 8.47941C2.01648 8.58613 2.11625 8.67032 2.23332 8.72198ZM5.83332 14.778L9.01732 13.234L5.83332 11.7486V14.778Z" fill="#EEF5FE"/>
</g>
</svg>
