<svg width="24" height="25" viewBox="0 0 24 25" fill="none" xmlns="http://www.w3.org/2000/svg">
<path d="M22 6.40704C21.2504 6.73442 20.4565 6.94908 19.644 7.04404C20.4968 6.54327 21.138 5.74915 21.448 4.81004C20.64 5.28037 19.7587 5.61164 18.841 5.79004C18.4545 5.38525 17.9897 5.06343 17.4748 4.84422C16.9598 4.62501 16.4056 4.51301 15.846 4.51504C13.58 4.51504 11.743 6.32504 11.743 8.55504C11.743 8.87104 11.779 9.18004 11.849 9.47504C10.2236 9.39774 8.63212 8.98245 7.17617 8.25568C5.72022 7.52891 4.43176 6.50662 3.393 5.25404C3.02883 5.86844 2.83742 6.56982 2.839 7.28404C2.8397 7.95201 3.00683 8.60927 3.32529 9.19644C3.64375 9.7836 4.1035 10.2822 4.663 10.647C4.01248 10.626 3.37602 10.4524 2.805 10.14V10.19C2.805 12.148 4.22 13.781 6.095 14.153C5.74261 14.2465 5.37958 14.2939 5.015 14.294C4.75 14.294 4.493 14.269 4.242 14.219C4.51008 15.027 5.02311 15.7314 5.70982 16.2344C6.39653 16.7374 7.22284 17.0141 8.074 17.026C6.61407 18.1506 4.82182 18.7581 2.979 18.753C2.647 18.753 2.321 18.733 2 18.697C3.88125 19.8877 6.06259 20.5183 8.289 20.515C15.836 20.515 19.962 14.358 19.962 9.01904L19.948 8.49604C20.7529 7.92971 21.4481 7.22189 22 6.40704Z" fill="#334155"/>
</svg>
